<svg width="37" height="46" viewBox="0 0 37 46" fill="none" xmlns="http://www.w3.org/2000/svg">
<path d="M16.29 4.54228C16.29 10.9463 12.5257 16.431 7.13032 18.9039C6.49963 14.402 2.73892 14.6587 2.00026 15C-1.29345 16.5218 1.35848 23.8496 1.35848 27.7491C1.35848 33.0752 5.65599 37.4185 10.9259 37.4185L11.2083 37.4185C11.1769 37.6088 11.1769 37.8307 11.1769 38.0209C11.1769 42.0472 14.4079 45.3127 18.3917 45.3127C22.3755 45.3127 25.6065 42.0472 25.6065 38.0209C25.6065 37.8307 25.6065 37.6088 25.5751 37.4185L25.8261 37.4185C31.096 37.4185 35.3935 33.0752 35.3935 27.7491C35.3935 23.8496 38.3247 16.5535 34.9996 15C31.4996 13.3648 29.6844 18.9039 29.6217 18.8721C24.2263 16.3993 20.462 10.9146 20.462 4.51057L20.462 3.25381L20.1264 3.25381L20.1264 7.16646L19.4561 7.16646L18.7859 7.16646L20.1264 7.16646L20.1264 4.12117L20.462 4.12117L20.462 3.04325C20.462 1.87023 19.521 0.919135 18.3603 0.919135C17.1997 0.919135 16.2586 1.87023 16.2586 3.04325L16.29 4.54228ZM18.3917 21.8205L14.7215 18.1113L18.3917 14.402L22.0618 18.1113L18.3917 21.8205ZM25.8574 33.202C22.9088 33.202 20.4934 30.7609 20.4934 27.7808C20.4934 24.8007 22.9088 22.3595 25.8574 22.3595C28.8061 22.3595 31.2215 24.8007 31.2215 27.7808C31.2215 30.7609 28.8061 33.202 25.8574 33.202ZM10.8946 33.202C7.94591 33.202 5.53052 30.7609 5.53052 27.7808C5.53052 24.8007 7.94591 22.3595 10.8946 22.3595C13.8432 22.3595 16.2586 24.8007 16.2586 27.7808C16.29 30.7609 13.8746 33.202 10.8946 33.202ZM18.3917 41.3815C16.5409 41.3815 15.0666 39.8597 15.0666 38.0209C15.0666 36.1821 16.5723 34.6604 18.3917 34.6604C20.2424 34.6604 21.7168 36.1821 21.7168 38.0209C21.7168 39.8597 20.2111 41.3815 18.3917 41.3815Z" fill="white"/>
</svg>
